<?xml version="1.0" encoding="utf-8"?>
<!-- Generator: Adobe Illustrator 23.0.4, SVG Export Plug-In . SVG Version: 6.00 Build 0)  -->
<svg version="1.1" id="Layer_1" xmlns="http://www.w3.org/2000/svg" xmlns:xlink="http://www.w3.org/1999/xlink" x="0px" y="0px"
	 viewBox="0 0 100 100" style="enable-background:new 0 0 100 100;" xml:space="preserve">
<style type="text/css">
	.st0{fill:#FFFFFF;}
</style>
<g>
	<path class="st0" d="M64.55,0c2.47,0.78,4.99,1.45,7.41,2.36c3.8,1.43,7.16,3.6,8.88,7.44c0.76,1.7,0.99,3.69,1.26,5.57
		c1.68,11.95,2.75,23.97,3.36,36.02c0.61,12.08,1.05,24.18,1.56,36.27c0.05,1.14,0.1,2.28,0.13,3.41c0.04,1.37-0.4,1.84-1.77,1.85
		c-2.96,0.01-5.92,0-8.88,0c-0.35,0-0.71,0-1.21,0c0,1.01,0,1.98,0,2.94c0,1.28-0.19,1.67-1.47,1.89c-3.35,0.6-6.71,1.27-10.1,1.58
		c-9.02,0.84-18.06,0.82-27.1,0.25c-4.32-0.28-8.62-0.67-12.83-1.77c-1.49-0.39-1.63-0.6-1.63-2.17c0-0.87,0-1.74,0-2.72
		c-1.32,0-2.54,0-3.77,0c-2.11,0-4.23,0.01-6.34,0c-1.32-0.01-1.79-0.48-1.74-1.78c0.41-10.99,0.73-21.98,1.29-32.96
		c0.44-8.7,1.07-17.4,1.85-26.08c0.58-6.54,1.49-13.05,2.33-19.56c0.45-3.49,2.53-5.97,5.31-7.95c2.81-2.01,6.1-2.85,9.33-3.82
		c0.83-0.25,1.67-0.52,2.5-0.78c0.26,0,0.52,0,0.78,0c7.28,5.49,22.85,5.46,30.07,0C64.03,0,64.29,0,64.55,0z M72.76,95.6
		c0-0.43,0-0.63,0-0.82c0.14-21.9,0.32-43.8,0.4-65.7c0.02-5.21-0.9-10.3-3.21-15.04c-1.36-2.8-3.33-5.03-6.32-6.2
		c-0.6-0.24-1.04-0.19-1.55,0.31c-0.67,0.65-1.43,1.24-2.23,1.72c-4.51,2.73-9.42,3.43-14.56,2.71c-3.68-0.51-7.06-1.79-9.82-4.36
		c-0.57-0.53-1.02-0.62-1.71-0.35c-2.94,1.19-4.89,3.4-6.23,6.17c-2.37,4.9-3.25,10.14-3.23,15.53c0.1,21.64,0.26,43.28,0.4,64.92
		c0,0.32,0,0.64,0,1.13C40.76,98.1,56.7,98.12,72.76,95.6z M64.39,5.31c0.98,0.53,1.99,0.98,2.89,1.6c3.41,2.35,5.22,5.82,6.43,9.63
		c0.71,2.24,1.17,4.55,1.75,6.84c0.16-0.48,0.21-1.11,0.54-1.49c0.33-0.37,0.95-0.71,1.42-0.68c0.67,0.05,1.01,0.66,0.91,1.37
		c-0.04,0.29-0.13,0.57-0.22,0.85c-0.67,2.31-1.35,4.61-2,6.93c-0.19,0.68-0.4,1.39-0.4,2.09c-0.15,18.9-0.28,37.8-0.41,56.7
		c0,0.38,0,0.76,0,1.15c3.15,0,6.19,0,9.24,0c0.02-0.2,0.05-0.33,0.04-0.46c-0.61-13.78-1.14-27.56-1.84-41.33
		c-0.57-11.04-1.66-22.04-3.12-33.01c-0.42-3.17-1.29-5.96-3.87-8.11c-3.07-2.55-6.8-3.39-10.47-4.51
		C64.95,3.76,64.66,4.55,64.39,5.31z M22.17,90.33c0-0.4,0-0.75,0-1.1c-0.13-18.94-0.26-37.88-0.41-56.82
		c0-0.51-0.12-1.03-0.26-1.53c-0.76-2.69-1.54-5.37-2.31-8.06c-0.22-0.78,0.04-1.38,0.81-1.63c0.8-0.26,1.31,0.16,1.58,0.89
		c0.16,0.44,0.3,0.89,0.52,1.58c0.54-3.62,1.34-6.89,2.75-10c1.24-2.75,2.91-5.16,5.45-6.85c0.87-0.58,1.85-1.01,2.77-1.51
		c-0.3-0.81-0.59-1.59-0.92-2.48c-2.26,0.75-4.55,1.33-6.68,2.26c-4.11,1.81-6.95,4.71-7.45,9.45c-0.75,7.05-1.73,14.07-2.32,21.14
		c-0.79,9.63-1.4,19.27-1.9,28.92c-0.43,8.28-0.62,16.58-0.91,24.87c-0.01,0.28,0,0.56,0,0.85C16.04,90.33,19.06,90.33,22.17,90.33z
		 M35.39,4.04c0.89,1.74,2.17,2.86,3.66,3.75c3.88,2.3,8.11,2.85,12.5,2.31c3.11-0.38,6.02-1.37,8.43-3.47
		c0.78-0.68,1.39-1.55,2.08-2.34C53.11,7.55,44.35,7.55,35.39,4.04z"/>
</g>
</svg>
