<?xml version="1.0" encoding="utf-8"?>
<!-- Generator: Adobe Illustrator 23.0.4, SVG Export Plug-In . SVG Version: 6.00 Build 0)  -->
<svg version="1.1" id="Layer_1" xmlns="http://www.w3.org/2000/svg" xmlns:xlink="http://www.w3.org/1999/xlink" x="0px" y="0px"
	 viewBox="0 0 100 100" style="enable-background:new 0 0 100 100;" xml:space="preserve">
<style type="text/css">
	.st0{fill:#FFFFFF;}
</style>
<g>
	<path class="st0" d="M35.44,0.53c0.27,0,0.54,0,0.81,0c0.06,0.03,0.12,0.07,0.18,0.08c3.14,0.51,6.28,1.02,9.42,1.51
		c2.53,0.39,5.07,0.54,7.61,0.19c3.05-0.42,6.09-0.91,9.13-1.44c1.69-0.29,3.33-0.32,4.98,0.22c1.65,0.54,3.33,0.95,4.98,1.48
		c4.11,1.32,8.11,2.89,11.88,5.02c2.61,1.47,4.5,3.52,5.66,6.29c1.03,2.46,1.86,4.98,2.51,7.56c1.58,6.25,2.45,12.62,3.04,19.03
		c0.08,0.85,0.2,1.7,0.29,2.55c0,0.4,0,0.81,0,1.21c-0.3,0.97-1.06,1.47-1.93,1.85c-3.73,1.63-7.61,2.8-11.62,3.52
		c-0.97,0.17-1.95,0.29-2.95,0.43c0,0.2,0,0.35,0,0.5c-0.02,4.47-0.04,8.93-0.07,13.4c-0.07,9.63-0.13,19.25-0.23,28.88
		c-0.02,2.2,0.25,2.01-2.13,3.02c-2.69,1.14-5.53,1.8-8.4,2.33c-3.91,0.73-7.87,1.14-11.84,1.35c-0.94,0.05-1.88,0.12-2.82,0.18
		c-2.26,0-4.52,0-6.78,0c-0.17-0.02-0.33-0.06-0.5-0.07c-2.27-0.14-4.55-0.24-6.81-0.44c-4.42-0.38-8.8-1.05-13.05-2.34
		c-1.32-0.4-2.6-0.92-3.89-1.42c-0.68-0.26-1.06-0.76-1.07-1.55c-0.03-2.01-0.13-4.01-0.14-6.02c-0.07-12.39-0.12-24.79-0.17-37.18
		c0-0.21,0-0.43,0-0.64c-0.13-0.03-0.2-0.04-0.26-0.05c-0.15-0.02-0.3-0.04-0.45-0.06c-4.94-0.57-9.65-1.97-14.18-4
		c-0.73-0.33-1.35-0.75-1.55-1.58c0-0.61,0-1.21,0-1.82c0.03-0.13,0.07-0.26,0.08-0.39c0.41-5,1.02-9.98,1.94-14.92
		c0.75-4.01,1.75-7.94,3.11-11.8c1.4-3.97,3.94-6.77,7.73-8.61c3.81-1.85,7.74-3.38,11.77-4.63C31.61,1.57,33.53,1.07,35.44,0.53z
		 M21.59,45.96c0.02-0.29,0.03-0.43,0.03-0.56c-0.01-2.46-0.01-4.92-0.04-7.38c-0.02-2.07-0.01-4.15-0.42-6.2
		c-0.51-2.55-1.28-4.99-3.01-7.02c-0.28-0.32-0.46-0.74-0.63-1.14c-0.2-0.46-0.12-0.93,0.13-1.36c0.68-1.14,2.06-1.43,3.09-0.59
		c0.46,0.38,0.88,0.84,1.24,1.33c1.54,2.11,2.61,4.48,3.09,7.02c0.36,1.94,0.41,3.95,0.43,5.94c0.1,12.46,0.15,24.92,0.21,37.38
		c0.03,6.1,0.06,12.21,0.07,18.31c0,0.38,0.09,0.57,0.48,0.67c0.85,0.22,1.67,0.51,2.52,0.75c4.9,1.36,9.91,1.95,14.97,2.2
		c5.31,0.26,10.62,0.24,15.92-0.16c5.06-0.38,10.03-1.16,14.87-2.73c0.51-0.17,0.65-0.37,0.66-0.9c0.06-18.28,0.13-36.55,0.22-54.83
		c0.01-1.89-0.02-3.8,0.26-5.65c0.39-2.58,1.36-5.01,2.76-7.22c0.51-0.8,1.17-1.52,1.86-2.17c0.64-0.61,1.73-0.52,2.42,0.04
		c0.71,0.58,0.95,1.49,0.56,2.31c-0.19,0.41-0.44,0.8-0.72,1.16c-1.96,2.55-2.91,5.46-3.03,8.63c-0.14,3.87-0.16,7.75-0.23,11.63
		c0,0.14,0.02,0.29,0.03,0.5c0.83-0.12,1.62-0.22,2.39-0.36c3.22-0.6,6.34-1.54,9.39-2.74c0.35-0.14,0.5-0.33,0.47-0.71
		c-0.06-0.76-0.04-1.52-0.15-2.27c-0.65-4.53-1.26-9.08-2.02-13.59c-0.56-3.35-1.45-6.64-2.69-9.82c-0.72-1.84-1.66-3.5-3.38-4.6
		c-0.51-0.32-1.01-0.67-1.54-0.97c-4.69-2.6-9.78-4.15-14.9-5.61c-0.16-0.05-0.45,0.09-0.56,0.24c-0.4,0.52-0.71,1.11-1.12,1.61
		c-1.54,1.88-3.52,3.17-5.76,4.07c-3.47,1.4-7.08,1.89-10.8,1.63c-3.25-0.23-6.35-1.01-9.2-2.63c-1.86-1.06-3.45-2.42-4.59-4.25
		c-0.46-0.73-0.59-0.82-1.44-0.57c-0.95,0.28-1.9,0.57-2.85,0.87c-3.85,1.25-7.66,2.57-11.22,4.53c-2.01,1.1-3.79,2.41-4.75,4.63
		c-1.09,2.51-1.93,5.11-2.46,7.79c-0.78,3.98-1.47,7.98-2.1,11.99c-0.35,2.26-0.49,4.56-0.73,6.83c-0.05,0.45,0.08,0.72,0.55,0.86
		c2.18,0.69,4.33,1.47,6.54,2.08C18.1,45.37,19.82,45.61,21.59,45.96z M61.04,5.43c-2.37,0.33-4.72,0.63-7.07,0.97
		c-2.35,0.35-4.7,0.33-7.05,0c-2.33-0.32-4.65-0.66-7.04-1C44.14,9.73,56.81,9.73,61.04,5.43z"/>
</g>
</svg>
